# xmcd
#
# Track frame offsets:
#	150
#	15761
#	33820
#	50394
#	67278
#	83139
#	98635
#	114699
#	132325
#	148978
#	163722
#	181270
#	196657
#	214854
#	233389
#	253301
#
# Disc length: 3554 seconds
#
# Revision: 1
# Processed by: cddbd v1.5.2PL0 Copyright (c) Steve Scherf et al.
# Submitted via: audiograbber 1.83.01
#
DISCID=d70de010
DTITLE=Chartbusters - Esp453-06
DYEAR=1900
DGENRE=
TTITLE0=Murphy, David Lee - Party Crowd
TTITLE1=Montgomery, John Michael - I Can Love You Like That
TTITLE2=McBride, Martina - Wild Angels
TTITLE3=Chesney, Kenny - Back In My Arms Again
TTITLE4=Strait, George - Check  Yes Or No
TTITLE5=Hill, Faith - It Matter To Me
TTITLE6=Kershaw, Sammy - Queen Of My Double Wide Trailer
TTITLE7=Chesney, Kenny - GrandPa Told Me So
TTITLE8=Yearwood, Trisha - Thinkin' About You
TTITLE9=Lawrence, Tracy - If The World Had A Front Porch
TTITLE10=Diffie, Joe - Bigger Than The Beatles
TTITLE11=Hill, Faith - Let's Go To Vegas
TTITLE12=Akins, Rhett - That Ain't My Truck
TTITLE13=Raye, Collin - Not That Different
TTITLE14=Krauss, Alison and Union Station - When You Say Nothing At All
TTITLE15=McGraw, Tim - Refried Dreams
EXTD=
EXTT0=
EXTT1=
EXTT2=
EXTT3=
EXTT4=
EXTT5=
EXTT6=
EXTT7=
EXTT8=
EXTT9=
EXTT10=
EXTT11=
EXTT12=
EXTT13=
EXTT14=
EXTT15=
PLAYORDER=
